<svg width="30" height="30" viewBox="0 0 30 30" fill="none" xmlns="http://www.w3.org/2000/svg">
<path fill-rule="evenodd" clip-rule="evenodd" d="M15 0.841844L28 8.42584V21.5738L15 29.1598L2 21.5738V8.42584L15 0.839844V0.841844ZM15 7.99984C13.1435 7.99984 11.363 8.73734 10.0503 10.0501C8.7375 11.3629 8 13.1433 8 14.9998C8 16.8564 8.7375 18.6368 10.0503 19.9496C11.363 21.2623 13.1435 21.9998 15 21.9998H15.364C17.316 21.9998 19.19 21.2238 20.572 19.8438L20.708 19.7078L19.292 18.2918L19.156 18.4278C18.1504 19.4339 16.7864 19.9994 15.364 19.9998H15C13.6739 19.9998 12.4021 19.4731 11.4645 18.5354C10.5268 17.5977 10 16.3259 10 14.9998C10 13.6738 10.5268 12.402 11.4645 11.4643C12.4021 10.5266 13.6739 9.99984 15 9.99984H15.364C16.786 9.99984 18.15 10.5658 19.156 11.5718L19.292 11.7078L20.708 10.2918L20.572 10.1558C19.888 9.47209 19.076 8.92976 18.1824 8.55983C17.2889 8.1899 16.3311 7.99962 15.364 7.99984H15Z" fill="#F8F8F8"/>
</svg>
