<svg width="27" height="30" viewBox="0 0 27 30" fill="none" xmlns="http://www.w3.org/2000/svg">
<g clip-path="url(#clip0_11_93)">
<path d="M25.5096 6.63773L14.4887 0.274922C13.8538 -0.0916406 12.8148 -0.0916406 12.18 0.274922L1.15924 6.63773C0.524316 7.0043 0.00488281 7.90406 0.00488281 8.63719V21.3628C0.0542773 22.2166 0.490391 22.9237 1.15918 23.3623L12.1801 29.725C12.8149 30.0916 13.8539 30.0916 14.4887 29.725L25.5096 23.3623C26.2272 22.885 26.6357 22.1665 26.6639 21.3628V8.63719C26.6381 7.8658 26.1763 7.08779 25.5096 6.63773H25.5096ZM4.44805 15.0001C4.39584 6.32291 16.018 2.49146 21.0298 10.5541L17.1841 12.7795C14.8625 8.93965 9.09811 10.3127 8.89121 15.0001C8.95332 19.3201 14.619 21.3269 17.1843 17.2203L21.0301 19.4457C16.6132 27.1134 4.6707 24.3547 4.44805 15.0001ZM22.2207 15.4937H21.2333V16.4811H20.2461V15.4937H19.2587V14.5063H20.2461V13.519H21.2334V14.5063H22.2208V15.4937H22.2207ZM25.9234 15.4937H24.9359V16.4811H23.9486V15.4937H22.9613V14.5063H23.9487V13.519H24.936V14.5063H25.9234L25.9234 15.4937Z" fill="#F8F8F8"/>
</g>
<defs>
<clipPath id="clip0_11_93">
<rect width="26.67" height="30" fill="white"/>
</clipPath>
</defs>
</svg>
