<svg width="31" height="30" viewBox="0 0 31 30" fill="none" xmlns="http://www.w3.org/2000/svg">
<mask id="mask0_11_72" style="mask-type:luminance" maskUnits="userSpaceOnUse" x="4" y="1" width="23" height="27">
<path d="M23.8774 3.125H6.62241C6.44842 3.12502 6.27634 3.16137 6.1172 3.23171C5.95806 3.30205 5.81536 3.40484 5.69823 3.53351C5.58109 3.66217 5.49211 3.81387 5.43698 3.9789C5.38184 4.14392 5.36177 4.31864 5.37803 4.49187L7.05803 22.4081C7.07838 22.6262 7.15566 22.8351 7.28213 23.0139C7.4086 23.1926 7.57983 23.3351 7.77866 23.4269L14.7262 26.6331C14.8904 26.7089 15.0691 26.7481 15.2499 26.7481C15.4308 26.7481 15.6095 26.7089 15.7737 26.6331L22.7212 23.4269C22.9201 23.3352 23.0915 23.1928 23.218 23.014C23.3446 22.8352 23.422 22.6262 23.4424 22.4081L25.1218 4.49187C25.1381 4.31864 25.118 4.14392 25.0628 3.9789C25.0077 3.81387 24.9187 3.66217 24.8016 3.53351C24.6845 3.40484 24.5418 3.30205 24.3826 3.23171C24.2235 3.16137 24.0514 3.12502 23.8774 3.125Z" fill="white" stroke="white" stroke-width="2.5"/>
<path d="M20.25 7.5H10.25L10.875 13.125H19.625L19 20L15.25 21.875L11.5 20L11.1875 16.875" stroke="black" stroke-width="2.5" stroke-linecap="round" stroke-linejoin="round"/>
</mask>
<g mask="url(#mask0_11_72)">
<path d="M0.25 0H30.25V30H0.25V0Z" fill="#F8F8F8"/>
</g>
</svg>
