<svg width="31" height="30" viewBox="0 0 31 30" fill="none" xmlns="http://www.w3.org/2000/svg">
<path opacity="0.6" d="M14.8336 2.5H10.6661C9.56102 2.5 8.50116 2.93901 7.71972 3.72045C6.93828 4.50189 6.49927 5.56175 6.49927 6.66687C6.49927 7.772 6.93828 8.83186 7.71972 9.6133C8.50116 10.3947 9.56102 10.8337 10.6661 10.8337H14.8336V2.5Z" fill="#F8F8F8"/>
<path opacity="0.4" d="M14.8337 10.8338H10.6663C9.56129 10.8338 8.50159 11.2727 7.72027 12.054C6.93894 12.8354 6.5 13.8951 6.5 15C6.5 16.105 6.93894 17.1647 7.72027 17.946C8.50159 18.7273 9.56129 19.1663 10.6663 19.1663H14.8337V10.8338Z" fill="#F8F8F8"/>
<path d="M23.1663 14.9999C23.1663 16.105 22.7273 17.1649 21.9458 17.9463C21.1644 18.7277 20.1045 19.1668 18.9994 19.1668C17.8943 19.1668 16.8344 18.7277 16.053 17.9463C15.2715 17.1649 14.8325 16.105 14.8325 14.9999C14.8325 13.8948 15.2715 12.8349 16.053 12.0535C16.8344 11.272 17.8943 10.833 18.9994 10.833C20.1045 10.833 21.1644 11.272 21.9458 12.0535C22.7273 12.8349 23.1663 13.8948 23.1663 14.9999Z" fill="#F8F8F8"/>
<path opacity="0.2" d="M10.6662 19.1673H14.8337V23.3335C14.8335 24.1574 14.589 24.9627 14.1311 25.6477C13.6732 26.3326 13.0225 26.8664 12.2613 27.1816C11.5 27.4968 10.6624 27.5792 9.85437 27.4184C9.04631 27.2576 8.30407 26.8608 7.72149 26.2782C7.1389 25.6957 6.74213 24.9534 6.58134 24.1454C6.42054 23.3373 6.50294 22.4997 6.81812 21.7385C7.1333 20.9773 7.6671 20.3266 8.35205 19.8687C9.03699 19.4108 9.84232 19.1675 10.6662 19.1673Z" fill="#F8F8F8"/>
<path opacity="0.8" d="M14.8325 2.5H18.9988C20.1039 2.5 21.1638 2.93901 21.9452 3.72045C22.7266 4.50189 23.1656 5.56175 23.1656 6.66687C23.1656 7.772 22.7266 8.83186 21.9452 9.6133C21.1638 10.3947 20.1039 10.8337 18.9988 10.8337H14.8325V2.5Z" fill="#F8F8F8"/>
</svg>
