<svg width="31" height="30" viewBox="0 0 31 30" fill="none" xmlns="http://www.w3.org/2000/svg">
<g clip-path="url(#clip0_11_70)">
<path d="M2.9215 28.4599V24.3026H4.10439C4.46377 24.3026 4.74885 24.3905 4.95963 24.5665C5.17025 24.7423 5.27557 24.9712 5.27557 25.2534C5.27557 25.4894 5.21182 25.6943 5.08432 25.8682C4.95666 26.0421 4.78072 26.1658 4.5565 26.2392V26.2509C4.83682 26.2837 5.06103 26.39 5.22916 26.5697C5.39728 26.7475 5.48135 26.9795 5.48135 27.2655C5.48135 27.6212 5.35385 27.9091 5.09885 28.1295C4.84369 28.3498 4.52182 28.4599 4.13322 28.4599H2.9215ZM3.40854 24.7432V26.0855H3.90729C4.174 26.0855 4.38369 26.0217 4.53635 25.8942C4.689 25.7645 4.76533 25.5828 4.76533 25.3491C4.76533 24.9452 4.49955 24.7432 3.96799 24.7432H3.40854ZM3.40854 26.5233V28.0193H4.06947C4.35557 28.0193 4.57689 27.9516 4.73346 27.8163C4.89189 27.681 4.97111 27.4955 4.97111 27.2597C4.97111 26.7687 4.63674 26.5233 3.96799 26.5233H3.40854ZM7.50213 28.5302C7.06338 28.5302 6.7126 28.392 6.44978 28.1156C6.18885 27.8373 6.05838 27.4691 6.05838 27.011C6.05838 26.5124 6.19463 26.123 6.46713 25.8427C6.73963 25.5625 7.10783 25.4224 7.57174 25.4224C8.01424 25.4224 8.35924 25.5587 8.60674 25.8312C8.85596 26.1037 8.98057 26.4815 8.98057 26.9646C8.98057 27.4382 8.84627 27.818 8.57768 28.1041C8.31096 28.3882 7.95244 28.5302 7.50213 28.5302ZM7.53682 25.8225C7.2315 25.8225 6.98994 25.9269 6.81213 26.1356C6.63432 26.3423 6.54541 26.6284 6.54541 26.9937C6.54541 27.3455 6.63525 27.6229 6.81494 27.8257C6.99463 28.0288 7.23525 28.1304 7.53682 28.1304C7.84416 28.1304 8.08002 28.0308 8.24439 27.8316C8.41049 27.6325 8.49354 27.3494 8.49354 26.9822C8.49354 26.6111 8.41049 26.325 8.24439 26.1239C8.08002 25.923 7.84416 25.8225 7.53682 25.8225ZM10.9812 28.5302C10.5424 28.5302 10.1917 28.392 9.92885 28.1156C9.66791 27.8373 9.53744 27.4691 9.53744 27.011C9.53744 26.5124 9.67369 26.123 9.94619 25.8427C10.2187 25.5625 10.5869 25.4224 11.0508 25.4224C11.4933 25.4224 11.8383 25.5587 12.0858 25.8312C12.3352 26.1037 12.4599 26.4815 12.4599 26.9646C12.4599 27.4382 12.3255 27.818 12.0567 28.1041C11.79 28.3882 11.4315 28.5302 10.9812 28.5302ZM11.0159 25.8225C10.7106 25.8225 10.469 25.9269 10.2912 26.1356C10.1134 26.3423 10.0245 26.6284 10.0245 26.9937C10.0245 27.3455 10.1143 27.6229 10.294 27.8257C10.4737 28.0288 10.7143 28.1304 11.0159 28.1304C11.3232 28.1304 11.5591 28.0308 11.7235 27.8316C11.8896 27.6325 11.9726 27.3494 11.9726 26.9822C11.9726 26.6111 11.8896 26.325 11.7235 26.1239C11.5591 25.923 11.3232 25.8225 11.0159 25.8225ZM14.5964 28.4318C14.4844 28.4937 14.3365 28.5246 14.1528 28.5246C13.6329 28.5246 13.373 28.2347 13.373 27.6548V25.898H12.8628V25.492H13.373V24.7673L13.8485 24.6136V25.492H14.5964V25.898H13.8485V27.5707C13.8485 27.7698 13.8824 27.9119 13.95 27.997C14.0175 28.082 14.1296 28.1245 14.2861 28.1245C14.406 28.1245 14.5094 28.0917 14.5964 28.0261V28.4318ZM15.0516 28.3521V27.8419C15.3105 28.0331 15.5956 28.1287 15.9068 28.1287C16.3243 28.1287 16.5331 27.9897 16.5331 27.7116C16.5331 27.6322 16.5147 27.5655 16.478 27.5114C16.4431 27.4553 16.3948 27.406 16.3329 27.3635C16.2731 27.321 16.2016 27.2834 16.1185 27.2505C16.0372 27.2157 15.9492 27.1799 15.8546 27.1432C15.7233 27.091 15.6074 27.0388 15.5067 26.9866C15.4083 26.9326 15.3252 26.8727 15.2574 26.8069C15.1917 26.7392 15.1415 26.6629 15.1067 26.5779C15.0738 26.4929 15.0574 26.3934 15.0574 26.2793C15.0574 26.1402 15.0893 26.0175 15.1531 25.9111C15.2168 25.8028 15.3018 25.713 15.4081 25.6416C15.5143 25.5681 15.6352 25.513 15.7706 25.4761C15.9078 25.4394 16.0489 25.421 16.1939 25.421C16.451 25.421 16.681 25.4655 16.8839 25.5546V26.0358C16.6655 25.8927 16.4142 25.8211 16.1299 25.8211C16.041 25.8211 15.9609 25.8317 15.8895 25.853C15.8179 25.8723 15.756 25.9005 15.7038 25.9373C15.6535 25.9739 15.6139 26.0183 15.585 26.0705C15.558 26.1208 15.5445 26.1769 15.5445 26.2388C15.5445 26.3159 15.558 26.3806 15.585 26.4328C15.6139 26.485 15.6555 26.5314 15.7097 26.572C15.7638 26.6127 15.8295 26.6494 15.9068 26.6822C15.9842 26.715 16.0721 26.7508 16.1707 26.7895C16.302 26.8397 16.4199 26.8919 16.5244 26.9461C16.6288 26.9983 16.7177 27.0582 16.7911 27.1259C16.8645 27.1915 16.9206 27.2678 16.9592 27.3548C16.9998 27.4417 17.0201 27.5451 17.0201 27.6649C17.0201 27.8118 16.9873 27.9394 16.9217 28.0477C16.8578 28.1559 16.7717 28.2458 16.6634 28.3172C16.5553 28.3887 16.4306 28.442 16.2896 28.4768C16.1485 28.5116 16.0006 28.5291 15.8459 28.5291C15.5406 28.5291 15.276 28.4701 15.0516 28.3521ZM19.1276 28.4318C19.0156 28.4937 18.8677 28.5246 18.6839 28.5246C18.1641 28.5246 17.9042 28.2347 17.9042 27.6548V25.898H17.3939V25.492H17.9042V24.7673L18.3797 24.6136V25.492H19.1276V25.898H18.3797V27.5707C18.3797 27.7698 18.4135 27.9119 18.4812 27.997C18.5487 28.082 18.6607 28.1245 18.8173 28.1245C18.9371 28.1245 19.0406 28.0917 19.1276 28.0261V28.4318ZM21.3108 25.9732C21.2277 25.9095 21.1078 25.8776 20.9513 25.8776C20.7483 25.8776 20.5782 25.9732 20.441 26.1645C20.3057 26.3559 20.2381 26.6168 20.2381 26.9473V28.4606H19.7628V25.492H20.2381V26.1037H20.2498C20.3174 25.895 20.4208 25.7327 20.5599 25.6167C20.6989 25.4988 20.8546 25.4398 21.0267 25.4398C21.1503 25.4398 21.245 25.4534 21.3108 25.4805V25.9732ZM23.9524 28.4599H23.4769V27.9959H23.4652C23.2585 28.3516 22.9542 28.5295 22.5523 28.5295C22.2565 28.5295 22.0245 28.4512 21.8562 28.2947C21.6901 28.1381 21.6071 27.9303 21.6071 27.6712C21.6071 27.1166 21.9336 26.7939 22.5867 26.7033L23.4769 26.5784C23.4769 26.074 23.273 25.8218 22.8652 25.8218C22.5077 25.8218 22.1849 25.9435 21.897 26.187V25.6999C22.1888 25.5145 22.5252 25.4217 22.906 25.4217C23.6036 25.4217 23.9524 25.7909 23.9524 26.5291V28.4599ZM23.4769 26.9583L22.7609 27.0567C22.5406 27.0877 22.3743 27.1427 22.2621 27.222C22.1501 27.2993 22.0941 27.4375 22.0941 27.6366C22.0941 27.7816 22.1453 27.9005 22.2478 27.9933C22.3522 28.0839 22.4904 28.1292 22.6624 28.1292C22.8982 28.1292 23.0924 28.0472 23.2451 27.8831C23.3998 27.7169 23.4771 27.5071 23.4771 27.2538L23.4769 26.9583ZM25.3353 28.031H25.3235V29.8256H24.8482V25.4913H25.3238V26.013H25.3353C25.5692 25.6188 25.9113 25.4217 26.3616 25.4217C26.7442 25.4217 27.0428 25.5551 27.2574 25.8218C27.4719 26.0865 27.5792 26.4421 27.5792 26.8887C27.5792 27.3854 27.4584 27.7835 27.2168 28.083C26.9753 28.3807 26.6448 28.5295 26.2254 28.5295C25.8407 28.5295 25.544 28.3635 25.3353 28.031ZM25.3235 26.8336V27.2484C25.3235 27.4937 25.4028 27.7024 25.5614 27.8745C25.7219 28.0446 25.9248 28.1297 26.1701 28.1297C26.4582 28.1297 26.6835 28.0195 26.8458 27.7992C27.0099 27.5789 27.0919 27.2725 27.0919 26.88C27.0919 26.5495 27.0156 26.2905 26.8631 26.103C26.7105 25.9155 26.5037 25.8218 26.2428 25.8218C25.9662 25.8218 25.7439 25.9184 25.576 26.1117C25.4077 26.3031 25.3235 26.5437 25.3235 26.8336ZM6.6333 0.480469C4.95119 0.480469 3.70689 1.95328 3.76244 3.55055C3.81588 5.08477 3.7465 7.07227 3.24611 8.69273C2.74455 10.3184 1.89611 11.3456 0.510254 11.4778V12.9748C1.89611 13.1067 2.74455 14.1342 3.24611 15.7598C3.7465 17.3803 3.81564 19.3678 3.76244 20.902C3.70666 22.4993 4.95119 23.9719 6.6333 23.9719H23.8692C25.5513 23.9719 26.7956 22.4991 26.7401 20.902C26.6867 19.3678 26.756 17.3803 27.2562 15.7598C27.7578 14.1345 28.6041 13.107 29.9899 12.9748V11.4778C28.6041 11.3459 27.758 10.3184 27.2562 8.69273C26.756 7.07227 26.6867 5.08477 26.7401 3.55055C26.7956 1.95328 25.5513 0.480469 23.869 0.480469H6.6333ZM20.2538 14.9381C20.2538 17.1375 18.6127 18.4709 15.8895 18.4709H10.8687C10.8382 18.4709 10.8089 18.4587 10.7873 18.4372C10.7657 18.4156 10.7536 18.3863 10.7536 18.3558V6.09187C10.7536 6.07674 10.7565 6.06175 10.7623 6.04776C10.7681 6.03378 10.7765 6.02106 10.7872 6.01035C10.7979 5.99964 10.8106 5.99114 10.8246 5.98534C10.8386 5.97955 10.8536 5.97656 10.8687 5.97656H15.863C18.1338 5.97656 19.624 7.20609 19.624 9.09375C19.624 10.4187 18.6216 11.6046 17.3442 11.8125V11.8819C19.0828 12.0724 20.2538 13.2759 20.2538 14.9381ZM15.3839 7.56117H12.7406V11.2929H14.9672C16.688 11.2929 17.637 10.6003 17.637 9.36211C17.637 8.20195 16.8211 7.56117 15.3839 7.56117ZM12.7406 12.7737V16.8865H15.4817C17.2735 16.8865 18.2227 16.1679 18.2227 14.817C18.2227 13.4663 17.247 12.7737 15.3663 12.7737H12.7406Z" fill="#F8F8F8"/>
</g>
<defs>
<clipPath id="clip0_11_70">
<rect width="30" height="30" fill="white" transform="translate(0.25)"/>
</clipPath>
</defs>
</svg>
