<svg width="30" height="30" viewBox="0 0 30 30" fill="none" xmlns="http://www.w3.org/2000/svg">
<g clip-path="url(#clip0_11_81)">
<path fill-rule="evenodd" clip-rule="evenodd" d="M0.257374 0.375C0.357966 0.257394 0.482842 0.162976 0.62341 0.0982405C0.763978 0.0335053 0.916901 -1.015e-05 1.07166 3.16245e-08H28.9288C29.0837 -3.75914e-05 29.2367 0.0334947 29.3773 0.098287C29.518 0.163079 29.6429 0.257592 29.7435 0.375313C29.8442 0.493035 29.9181 0.631168 29.9601 0.780197C30.0022 0.929225 30.0115 1.08561 29.9874 1.23857L26.7731 21.5957C26.7508 21.738 26.7 21.8744 26.6238 21.9966C26.5476 22.1189 26.4475 22.2245 26.3295 22.3071L15.6152 29.8071C15.435 29.9335 15.2203 30.0012 15.0002 30.0012C14.7802 30.0012 14.5654 29.9335 14.3852 29.8071L3.67094 22.3071C3.55298 22.2245 3.4529 22.1189 3.37668 21.9966C3.30047 21.8744 3.24969 21.738 3.22737 21.5957L0.0130879 1.23857C-0.0110554 1.08553 -0.0017182 0.929064 0.0404556 0.779976C0.0826295 0.630888 0.156637 0.49272 0.257374 0.375ZM9.00023 5.27786C8.64503 5.27786 8.30438 5.41896 8.05321 5.67012C7.80205 5.92129 7.66095 6.26194 7.66095 6.61714C7.66095 6.97234 7.80205 7.313 8.05321 7.56416C8.30438 7.81533 8.64503 7.95643 9.00023 7.95643H16.3288L10.6931 11.4793C10.4465 11.6334 10.2568 11.8636 10.1526 12.135C10.0484 12.4065 10.0353 12.7044 10.1154 12.984C10.1955 13.2635 10.3644 13.5093 10.5966 13.6844C10.8288 13.8594 11.1116 13.9542 11.4024 13.9543H18.4631V17.9464L15.0002 20.5393L11.0038 17.5457C10.7196 17.3326 10.3625 17.2411 10.0108 17.2913C9.6592 17.3416 9.34192 17.5294 9.1288 17.8136C8.91568 18.0977 8.82417 18.4549 8.87441 18.8065C8.92464 19.1582 9.1125 19.4754 9.39666 19.6886L14.1967 23.2886C14.4285 23.4624 14.7104 23.5564 15.0002 23.5564C15.29 23.5564 15.572 23.4624 15.8038 23.2886L20.6038 19.6886C20.7701 19.5638 20.9051 19.4021 20.9981 19.2161C21.0911 19.0301 21.1395 18.8251 21.1395 18.6171V12.6171C21.1389 12.2623 20.9976 11.9222 20.7465 11.6715C20.4954 11.4208 20.1551 11.28 19.8002 11.28H16.0717L21.7074 7.755C21.9538 7.60099 22.1434 7.37102 22.2477 7.09978C22.3519 6.82854 22.3651 6.53076 22.2853 6.25135C22.2055 5.97195 22.037 5.72609 21.8051 5.55087C21.5733 5.37565 21.2908 5.28058 21.0002 5.28L9.00023 5.27786Z" fill="#F8F8F8"/>
</g>
<defs>
<clipPath id="clip0_11_81">
<rect width="30" height="30" fill="white"/>
</clipPath>
</defs>
</svg>
