<svg width="30" height="35" viewBox="0 0 30 35" fill="none" xmlns="http://www.w3.org/2000/svg">
<g clip-path="url(#clip0_11_27)">
<path d="M21.6985 21.3896C22.4641 20.9316 23.5266 20.5352 23.5266 20.5352C23.5266 20.5352 20.5032 21.0137 17.4954 21.2324C13.8157 21.499 9.86255 21.5537 7.87817 21.3213C3.18286 20.7744 10.4563 19.2637 10.4563 19.2637C10.4563 19.2637 7.63598 19.0996 4.15942 20.5625C0.0578595 22.2988 14.3157 23.0918 21.6985 21.3896ZM15.0266 19.1953C13.5422 16.2764 8.53442 13.7129 15.0266 9.22852C23.125 3.63672 18.9719 0 18.9719 0C20.6516 5.77637 13.0657 7.52637 10.3235 11.1152C8.4563 13.5693 11.2375 16.2012 15.0266 19.1953ZM23.9797 7.15039C23.9875 7.15039 10.2922 10.1445 16.8313 16.7344C18.761 18.6758 16.3235 20.4258 16.3235 20.4258C16.3235 20.4258 21.2219 18.2109 18.9719 15.4424C16.8704 12.8584 15.261 11.5732 23.9797 7.15039ZM23.5032 25.6416C23.4605 25.7067 23.4079 25.7665 23.3469 25.8193C33.3704 23.5156 29.6829 17.6914 24.8938 19.168C24.6351 19.2511 24.4116 19.4014 24.2532 19.5986C24.5328 19.5101 24.8202 19.4415 25.1125 19.3936C27.5344 18.9492 31.011 22.2305 23.5032 25.6416ZM27.1875 29.9004C27.1875 29.9004 28.3204 30.7139 25.9454 31.3496C21.4219 32.5459 7.13286 32.9082 3.16411 31.3975C1.73442 30.8574 4.41411 30.0986 5.25786 29.9414C6.13286 29.7773 6.64067 29.8047 6.64067 29.8047C5.05473 28.8271 -3.61714 31.7256 2.23442 32.5527C18.1907 34.8223 31.3282 31.5342 27.1875 29.9004ZM9.72192 27.0703C3.57348 28.5742 13.4641 31.6777 21.2922 28.7451C20.5288 28.4856 19.7918 28.17 19.0891 27.8018C15.5969 28.3828 13.9797 28.4238 10.8079 28.1094C8.19067 27.8496 9.72192 27.0703 9.72192 27.0703ZM23.7688 33.7148C17.6204 34.7266 10.0344 34.6104 5.54223 33.9609C5.54223 33.9541 6.46411 34.624 11.1985 34.8906C18.4016 35.2939 29.4641 34.665 29.7219 31.6846C29.7219 31.6846 29.2219 32.8125 23.7688 33.7148ZM20.3625 24.1309C15.7375 24.9102 13.0579 24.8896 9.67505 24.582C7.05786 24.3428 8.7688 23.2354 8.7688 23.2354C1.98755 25.2041 12.5344 27.4326 22.011 25.0059C21.3985 24.8166 20.8373 24.5187 20.3625 24.1309Z" fill="#F8F8F8"/>
</g>
<defs>
<clipPath id="clip0_11_27">
<rect width="30" height="35" fill="white"/>
</clipPath>
</defs>
</svg>
