<svg width="30" height="30" viewBox="0 0 30 30" fill="none" xmlns="http://www.w3.org/2000/svg">
<g clip-path="url(#clip0_11_85)">
<path fill-rule="evenodd" clip-rule="evenodd" d="M1.27266 15.7171C1.27266 16.627 1.18195 16.9237 0.947578 17.1417C0.688359 17.3292 0.350625 17.4328 0 17.4328L0.0907031 17.9528C0.633516 17.9582 1.15992 17.8045 1.57195 17.5216C1.7925 17.3045 1.9575 17.0556 2.05547 16.7873C2.15279 16.5236 2.1826 16.2397 2.14219 15.9616V12.52H1.27266V15.7171ZM7.40391 15.2088C7.40391 15.5861 7.40391 15.9222 7.43953 16.2142H6.70828L6.65859 15.6154C6.50484 15.8278 6.28594 16.0026 6.02344 16.1217C5.75345 16.2437 5.45976 16.3044 5.16352 16.2993C4.44938 16.2993 3.59977 15.9824 3.59977 14.6915V12.5456H4.42477V14.5553C4.42477 15.2538 4.69031 15.7206 5.43375 15.7206C5.58573 15.7225 5.73697 15.6993 5.88141 15.652C6.01902 15.6065 6.14737 15.5367 6.26039 15.446C6.36525 15.3621 6.45079 15.2565 6.51117 15.1366C6.56977 15.0213 6.59906 14.8975 6.59719 14.7712V12.52H7.42125V15.1888L7.40391 15.2088ZM9.15703 13.6642C9.15703 13.1617 9.15703 12.7497 9.11953 12.3782H9.86109L9.89766 13.0537C10.0627 12.8083 10.3008 12.6088 10.5853 12.4734C10.8755 12.3369 11.1942 12.2721 11.5146 12.2847C12.6131 12.2847 13.44 13.0912 13.44 14.2917C13.44 15.7087 12.4465 16.4118 11.3728 16.4118C11.1002 16.423 10.8287 16.3717 10.579 16.2618C10.3404 16.1578 10.1318 15.9957 9.97195 15.7903V17.9528H9.15703V13.6642ZM9.97195 14.7182C9.97383 14.8171 9.98648 14.9151 10.0085 15.0112C10.0788 15.251 10.2382 15.4635 10.4618 15.6154C10.6852 15.7682 10.9608 15.8498 11.2437 15.8498C12.1132 15.8498 12.6251 15.2273 12.6251 14.3245C12.6251 13.5353 12.1446 12.8587 11.2739 12.8587C10.9294 12.8835 10.6073 13.0171 10.3673 13.2351C10.1283 13.4538 9.98648 13.7404 9.97195 14.0425V14.7182ZM14.8463 12.5299L15.855 14.7292C15.9605 14.9746 16.0739 15.2692 16.148 15.4891C16.2359 15.2648 16.3303 14.9791 16.4428 14.7135L17.3576 12.5301H18.24L16.9875 15.183C16.3615 16.4575 15.9797 17.1166 15.4038 17.5141C15.1134 17.7309 14.7593 17.8811 14.3766 17.9524L14.1703 17.3821C14.4314 17.3131 14.6791 17.2008 14.903 17.0498C15.2077 16.8466 15.4505 16.5883 15.6108 16.2944C15.6443 16.2452 15.6676 16.1898 15.6792 16.1315C15.671 16.0691 15.6518 16.0086 15.6225 15.9529L13.9198 12.5198H14.8343L14.8463 12.5299ZM20.4429 11.339V12.4293H21.6V12.9485H20.4429V14.9945C20.4429 15.4626 20.6004 15.7317 21.0452 15.7317C21.2034 15.7338 21.3613 15.7178 21.5159 15.6841L21.5515 16.2051C21.3189 16.2735 21.077 16.3046 20.8348 16.2974C20.6744 16.3065 20.5137 16.285 20.3613 16.2342C20.2139 16.1866 20.0777 16.1094 19.9612 16.0073C19.7159 15.7235 19.6034 15.371 19.6472 15.0203V12.9431H18.9598V12.4239H19.6591V11.4991L20.4429 11.339ZM23.1539 14.4004C23.1365 14.5801 23.1661 14.7613 23.2397 14.9261C23.3181 15.0995 23.4356 15.2524 23.583 15.3728C23.7352 15.5001 23.9173 15.5978 24.1186 15.6592C24.3223 15.7219 24.5359 15.7466 24.7486 15.7319C25.1808 15.7399 25.6111 15.6721 26.0093 15.5313L26.1546 16.0577C25.6578 16.2274 25.1349 16.3079 24.6101 16.2956C24.3034 16.3127 23.9962 16.2746 23.703 16.1831C23.4148 16.0917 23.1527 15.9487 22.9357 15.7647C22.7189 15.5807 22.5523 15.3592 22.4468 15.1164C22.3429 14.8781 22.302 14.6171 22.328 14.3585C22.328 13.1992 23.1537 12.2838 24.503 12.2838C26.0156 12.2838 26.3946 13.3888 26.3946 14.0948C26.4019 14.2033 26.4019 14.3121 26.3946 14.4206H23.1345L23.1539 14.4004ZM25.6247 13.874C25.6493 13.7327 25.6374 13.5875 25.59 13.4521C25.5389 13.3118 25.4561 13.1852 25.3481 13.082C25.2323 12.9713 25.0954 12.8851 24.9455 12.8285C24.7882 12.7682 24.6213 12.7369 24.4528 12.7361C24.1066 12.7572 23.7818 12.8854 23.5427 13.0959C23.303 13.3063 23.1666 13.5829 23.16 13.874H25.6247ZM27.6361 13.6068C27.6361 13.1451 27.6361 12.7471 27.6005 12.381H28.3127V13.1498H28.3474C28.4224 12.9128 28.5771 12.7021 28.7888 12.5484C29.0075 12.3923 29.2666 12.3026 29.535 12.2901C29.6091 12.281 29.685 12.281 29.76 12.2901V12.9623C29.6694 12.9522 29.578 12.9522 29.4874 12.9623C29.2181 12.9714 28.9608 13.0685 28.7658 13.237C28.5698 13.4053 28.4491 13.6324 28.4252 13.8749C28.4031 13.9847 28.3908 14.0963 28.3887 14.2082V16.2993H27.6059V13.6122L27.6361 13.6068ZM25.7264 1.70666C25.7412 2.05898 25.6524 2.40791 25.4709 2.71025C25.29 3.0111 25.0239 3.25161 24.7064 3.40142C24.3894 3.55023 24.0352 3.60083 23.6892 3.54674C23.3427 3.49273 23.0201 3.33663 22.7627 3.09838C22.5043 2.85868 22.3223 2.54804 22.2396 2.20538C22.1568 1.86272 22.1771 1.50326 22.2977 1.17205C22.4171 0.841483 22.6314 0.553562 22.9139 0.344471C23.1957 0.136392 23.5333 0.0171637 23.8833 0.00204909C24.1155 -0.0077364 24.3473 0.028565 24.5655 0.108858C24.7836 0.189151 24.9836 0.311846 25.1541 0.469862C25.5001 0.790306 25.7055 1.23452 25.7255 1.70572L25.7264 1.70666ZM15.412 22.6853C10.7016 22.6853 6.58805 20.9594 4.45125 18.404C5.24359 20.692 6.72587 22.678 8.69391 24.0885C10.6537 25.4926 13.004 26.2479 15.4148 26.2483C17.8256 26.2474 20.1756 25.4922 22.1355 24.0885C24.1033 22.6781 25.5849 20.692 26.3763 18.404C24.2358 20.9594 20.1223 22.6853 15.412 22.6853ZM15.4102 6.0665C20.1206 6.0665 24.2348 7.79314 26.3709 10.3474C25.5786 8.05945 24.0963 6.07351 22.1283 4.66306C20.1687 3.25899 17.8189 2.50336 15.4083 2.50213C12.9976 2.50336 10.6478 3.25899 8.68828 4.66306C6.72 6.07312 5.23778 8.05922 4.44609 10.3474C6.58641 7.79783 10.6997 6.0665 15.4102 6.0665ZM8.94469 27.6527C8.964 28.0969 8.85225 28.5369 8.62336 28.9181C8.39591 29.2973 8.06066 29.6003 7.66036 29.7883C7.26005 29.9763 6.81283 30.0409 6.3757 29.9737C5.9386 29.9062 5.53191 29.7087 5.20852 29.407C4.88376 29.1047 4.65485 28.7138 4.55016 28.2827C4.4468 27.8499 4.4723 27.3964 4.62352 26.9779C4.77519 26.5609 5.04651 26.1978 5.40352 25.9342C5.81933 25.6287 6.32865 25.4776 6.84382 25.507C7.35899 25.5365 7.84779 25.7446 8.22609 26.0955C8.6614 26.5 8.91962 27.0599 8.94469 27.6536V27.6527ZM4.98867 5.48877C4.72976 5.50003 4.47341 5.43341 4.25273 5.29752C4.03057 5.16134 3.85372 4.9624 3.74451 4.7258C3.63531 4.4892 3.59864 4.22556 3.63914 3.96814C3.67803 3.71006 3.79282 3.46938 3.96891 3.27674C4.14343 3.08494 4.37091 2.94922 4.62258 2.88674C4.87408 2.82391 5.13872 2.83895 5.38148 2.92986C5.62512 3.01962 5.83624 3.18037 5.98758 3.39135C6.1663 3.63821 6.25456 3.93909 6.23753 4.24338C6.2205 4.54767 6.09921 4.83682 5.89406 5.06221C5.77862 5.18961 5.6391 5.29289 5.48355 5.3661C5.32799 5.43931 5.15948 5.481 4.98773 5.48877H4.98867Z" fill="#F8F8F8"/>
</g>
<defs>
<clipPath id="clip0_11_85">
<rect width="30" height="30" fill="white"/>
</clipPath>
</defs>
</svg>
