<svg width="35" height="35" viewBox="0 0 35 35" fill="none" xmlns="http://www.w3.org/2000/svg">
<g clip-path="url(#clip0_146_2)">
<path d="M17.3906 0.0952148L18.3247 1.84959C18.5347 2.17334 18.7622 2.4599 19.0302 2.72678C19.8122 3.50881 20.5548 4.32803 21.222 5.20521C22.8047 7.28334 23.8722 9.59115 24.6345 12.0871C25.0917 13.6118 25.34 15.1758 25.3586 16.7574C25.4352 21.4857 23.8142 25.5457 20.5461 28.9199C20.0123 29.4537 19.4414 29.948 18.8289 30.3877C18.5052 30.3877 18.352 30.1394 18.2186 29.9108C17.9703 29.4919 17.8183 29.014 17.7417 28.5382C17.6269 27.9662 17.5514 27.3941 17.5886 26.8035V26.5366C17.5623 26.4797 17.2769 0.229746 17.3906 0.0952148Z" fill="white" fill-opacity="0.56"/>
<path d="M17.3906 0.03714C17.3523 -0.0394225 17.3141 0.0185463 17.2758 0.0557338C17.2944 0.438546 17.1609 0.779796 16.952 1.10573C16.7223 1.42948 16.4183 1.67777 16.1131 1.94464C14.4178 3.41245 13.0834 5.18542 12.0148 7.16839C10.593 9.83714 9.86016 12.6973 9.65235 15.7084C9.55719 16.7945 9.99578 20.627 10.3381 21.7328C11.2722 24.6684 12.95 27.1282 15.1233 29.2632C15.657 29.7773 16.228 30.2542 16.8186 30.7125C16.9903 30.7125 17.0089 30.5593 17.0483 30.4456C17.1236 30.2022 17.181 29.9536 17.22 29.7018L17.6028 26.8428L17.3906 0.03714Z" fill="white" fill-opacity="0.59"/>
<path d="M18.3247 31.5494C18.363 31.1119 18.573 30.7487 18.8016 30.3867C18.5719 30.2915 18.4013 30.1023 18.2678 29.8912C18.153 29.7009 18.0578 29.4723 17.9834 29.2623C17.7166 28.4617 17.6597 27.6217 17.5831 26.8036V26.3081C17.488 26.3847 17.4683 27.0322 17.4683 27.1284C17.4126 27.9931 17.2979 28.853 17.1248 29.702C17.068 30.0455 17.0297 30.3878 16.8186 30.693C16.8186 30.7312 16.8186 30.7695 16.8372 30.8264C17.1806 31.837 17.2747 32.8662 17.3327 33.9151V34.298C17.3327 34.7551 17.3141 34.6589 17.6936 34.812C17.8467 34.8689 18.0173 34.8886 18.1705 35.0023C18.2853 35.0023 18.3039 34.9072 18.3039 34.8306L18.247 34.2017V32.4473C18.2284 32.1411 18.2853 31.837 18.3236 31.5505L18.3247 31.5494Z" fill="#C2BFBF"/>
</g>
<defs>
<clipPath id="clip0_146_2">
<rect width="35" height="35" fill="white"/>
</clipPath>
</defs>
</svg>
