<svg width="30" height="30" viewBox="0 0 30 30" fill="none" xmlns="http://www.w3.org/2000/svg">
<g clip-path="url(#clip0_11_11)">
<mask id="mask0_11_11" style="mask-type:luminance" maskUnits="userSpaceOnUse" x="0" y="0" width="30" height="30">
<path d="M0 0H30V30H0V0Z" fill="white"/>
</mask>
<g mask="url(#mask0_11_11)">
<path d="M14.8925 0C7.275 0 7.75 3.32 7.75 3.32L7.75875 6.76H15.0262V7.7925H4.875C4.875 7.7925 0 7.23625 0 14.9612C0 22.6862 4.25375 22.4113 4.25375 22.4113H6.79125V18.8275C6.79125 18.8275 6.655 14.5525 10.9787 14.5525H18.1862C18.1862 14.5525 22.2362 14.6175 22.2362 10.6175V4.0025C22.2362 4.0025 22.8512 0 14.8925 0ZM10.885 2.3125C11.6075 2.3125 12.1925 2.9 12.1925 3.6275C12.1925 4.35375 11.6075 4.94125 10.885 4.94125C10.1613 4.94125 9.5775 4.35375 9.5775 3.6275C9.5775 2.9 10.1613 2.3125 10.885 2.3125Z" fill="#F8F8F8"/>
<path d="M15.1087 29.9999C22.7237 29.9999 22.2487 26.6799 22.2487 26.6799L22.2399 23.2399H14.9724V22.2074H25.1262C25.1262 22.2074 30.0012 22.7636 30.0012 15.0386C30.0012 7.31362 25.7462 7.58862 25.7462 7.58862H23.2087V11.1724C23.2087 11.1724 23.3449 15.4474 19.0212 15.4474H11.8149C11.8149 15.4474 7.76493 15.3824 7.76493 19.3824V25.9974C7.76493 25.9974 7.14993 29.9999 15.1087 29.9999ZM19.1162 27.6874C18.3924 27.6874 17.8087 27.0999 17.8087 26.3724C17.8087 25.6461 18.3924 25.0586 19.1162 25.0586C19.8387 25.0586 20.4237 25.6461 20.4237 26.3724C20.4237 27.0999 19.8387 27.6874 19.1162 27.6874Z" fill="#F8F8F8"/>
</g>
</g>
<defs>
<clipPath id="clip0_11_11">
<rect width="30" height="30" fill="white"/>
</clipPath>
</defs>
</svg>
