<svg width="23" height="23" viewBox="0 0 23 23" fill="none" xmlns="http://www.w3.org/2000/svg">
<g clip-path="url(#clip0_11_11)">
<mask id="mask0_11_11" style="mask-type:luminance" maskUnits="userSpaceOnUse" x="0" y="0" width="23" height="23">
<path d="M0 0H23V23H0V0Z" fill="white"/>
</mask>
<g mask="url(#mask0_11_11)">
<path d="M11.4176 0C5.5775 0 5.94167 2.54533 5.94167 2.54533L5.94838 5.18267H11.5201V5.97425H3.7375C3.7375 5.97425 0 5.54779 0 11.4703C0 17.3928 3.26121 17.182 3.26121 17.182H5.20663V14.4344C5.20663 14.4344 5.10217 11.1569 8.41704 11.1569H13.9428C13.9428 11.1569 17.0478 11.2068 17.0478 8.14008V3.06858C17.0478 3.06858 17.5193 0 11.4176 0ZM8.34517 1.77292C8.89908 1.77292 9.34758 2.22333 9.34758 2.78108C9.34758 3.33788 8.89908 3.78829 8.34517 3.78829C7.79029 3.78829 7.34275 3.33788 7.34275 2.78108C7.34275 2.22333 7.79029 1.77292 8.34517 1.77292Z" fill="#F8F8F8"/>
<path d="M11.5835 22.9998C17.4216 22.9998 17.0575 20.4545 17.0575 20.4545L17.0508 17.8171H11.479V17.0255H19.2636C19.2636 17.0255 23.0011 17.452 23.0011 11.5295C23.0011 5.60699 19.7389 5.81783 19.7389 5.81783H17.7935V8.56537C17.7935 8.56537 17.8979 11.8429 14.5831 11.8429H9.05827C9.05827 11.8429 5.95327 11.793 5.95327 14.8597V19.9312C5.95327 19.9312 5.48177 22.9998 11.5835 22.9998ZM14.6559 21.2269C14.101 21.2269 13.6535 20.7765 13.6535 20.2187C13.6535 19.6619 14.101 19.2115 14.6559 19.2115C15.2098 19.2115 15.6583 19.6619 15.6583 20.2187C15.6583 20.7765 15.2098 21.2269 14.6559 21.2269Z" fill="#F8F8F8"/>
</g>
</g>
<defs>
<clipPath id="clip0_11_11">
<rect width="23" height="23" fill="white"/>
</clipPath>
</defs>
</svg>
