<svg width="30" height="30" viewBox="0 0 30 30" fill="none" xmlns="http://www.w3.org/2000/svg">
<path d="M24.5039 10.3831C24.1875 10.2776 23.8711 10.178 23.5547 10.0842C23.6074 9.86743 23.6543 9.65063 23.7012 9.43384C24.4219 5.94165 23.9473 3.13501 22.3477 2.20923C20.8066 1.32446 18.293 2.24438 15.75 4.45923C15.498 4.67603 15.252 4.90454 15.0176 5.13306C14.8594 4.98071 14.6953 4.82837 14.5312 4.68188C11.8652 2.3147 9.19336 1.3186 7.59375 2.25024C6.05859 3.14087 5.60156 5.78345 6.24609 9.08813C6.31055 9.41626 6.38086 9.73852 6.46289 10.0666C6.08789 10.1721 5.71875 10.2893 5.37305 10.4124C2.24414 11.4963 0 13.2073 0 14.9768C0 16.8049 2.39063 18.6389 5.64258 19.7522C5.90625 19.8401 6.16992 19.928 6.43945 20.0041C6.35156 20.3557 6.27539 20.7014 6.20508 21.0588C5.58984 24.3108 6.07031 26.8889 7.60547 27.7737C9.1875 28.6877 11.8477 27.7502 14.4375 25.4827C14.6426 25.301 14.8477 25.1135 15.0527 24.9143C15.3105 25.1663 15.5801 25.4065 15.8496 25.6409C18.3574 27.7971 20.8359 28.6702 22.3652 27.7854C23.9473 26.8713 24.4629 24.0999 23.7949 20.7249C23.7422 20.467 23.6836 20.2034 23.6191 19.9338C23.8066 19.8811 23.9883 19.8225 24.1699 19.7639C27.5508 18.6448 30 16.8342 30 14.9768C30 13.2014 27.6914 11.4788 24.5039 10.3831ZM16.5762 5.40845C18.7559 3.51001 20.7891 2.76587 21.7148 3.29907C22.7051 3.86743 23.0859 6.16431 22.4648 9.18188C22.4238 9.3811 22.3828 9.57446 22.3301 9.76782C21.0293 9.47485 19.7109 9.26392 18.3867 9.14673C17.625 8.05688 16.793 7.01392 15.8906 6.0354C16.1191 5.8186 16.3418 5.61353 16.5762 5.40845ZM9.79687 18.0178C10.0957 18.5276 10.4004 19.0374 10.7227 19.5354C9.80859 19.4358 8.90039 19.2893 8.00391 19.0959C8.26172 18.2522 8.58398 17.3791 8.95898 16.4885C9.22852 17.0041 9.50391 17.5139 9.79687 18.0178ZM8.02148 10.969C8.86523 10.7815 9.76172 10.6291 10.6934 10.512C10.3828 10.9983 10.0781 11.4963 9.79102 12.0002C9.50391 12.4983 9.22266 13.0081 8.95898 13.5237C8.58984 12.6506 8.2793 11.7952 8.02148 10.969ZM9.62695 15.0061C10.0137 14.1975 10.4355 13.4065 10.8809 12.6272C11.3262 11.8479 11.8066 11.092 12.3105 10.3479C13.1895 10.2834 14.0859 10.2483 15 10.2483C15.9141 10.2483 16.8164 10.2834 17.6895 10.3479C18.1875 11.0862 18.6621 11.842 19.1133 12.6155C19.5645 13.3889 19.9863 14.1799 20.3848 14.9827C19.9922 15.7913 19.5703 16.5881 19.1191 17.3733C18.6738 18.1526 18.1992 18.9084 17.7012 19.6584C16.8281 19.7229 15.9199 19.7522 15 19.7522C14.0801 19.7522 13.1895 19.7229 12.3281 19.6702C11.8184 18.926 11.3379 18.1643 10.8867 17.385C10.4355 16.6057 10.0195 15.8147 9.62695 15.0061ZM20.209 18.0061C20.5078 17.4905 20.7891 16.969 21.0645 16.4417C21.4395 17.2913 21.7676 18.1526 22.0547 19.0374C21.1465 19.2424 20.2266 19.4006 19.3008 19.5061C19.6172 19.0139 19.916 18.51 20.209 18.0061ZM21.0527 13.5237C20.7773 13.0081 20.4961 12.4924 20.2031 11.9885C19.916 11.4905 19.6172 10.9983 19.3066 10.512C20.25 10.6291 21.1523 10.7874 21.9961 10.9807C21.7266 11.8479 21.4102 12.6916 21.0527 13.5237ZM15.0117 6.93188C15.627 7.59985 16.207 8.30298 16.7461 9.02954C15.5859 8.97681 14.4199 8.97681 13.2598 9.02954C13.834 8.27368 14.4258 7.57056 15.0117 6.93188ZM8.21484 3.34009C9.19922 2.76587 11.3848 3.58618 13.6875 5.62524C13.834 5.75415 13.9805 5.89478 14.1328 6.0354C13.2246 7.01392 12.3867 8.05688 11.6191 9.14673C10.2949 9.26392 8.98242 9.46899 7.68164 9.7561C7.60547 9.45727 7.54102 9.15259 7.47656 8.8479C6.92578 6.01196 7.28906 3.87329 8.21484 3.34009ZM6.7793 18.7854C6.5332 18.7151 6.29297 18.6389 6.05273 18.5569C4.80469 18.1643 3.38672 17.5432 2.36133 16.7288C1.76953 16.3186 1.37109 15.6858 1.25977 14.9768C1.25977 13.9045 3.11133 12.5334 5.7832 11.6018C6.11719 11.4846 6.45703 11.3791 6.79688 11.2795C7.19531 12.551 7.67578 13.7991 8.23242 15.0061C7.66992 16.2307 7.18359 17.4963 6.7793 18.7854ZM13.6113 24.5276C12.6445 25.4124 11.5254 26.1155 10.3066 26.5959C9.65625 26.9065 8.90625 26.9358 8.23828 26.6721C7.30664 26.1331 6.91992 24.0647 7.44727 21.2815C7.51172 20.9534 7.58203 20.6252 7.66406 20.303C8.97656 20.5842 10.3008 20.7776 11.6426 20.8772C12.416 21.9729 13.2656 23.0217 14.1738 24.0061C13.9863 24.1877 13.7988 24.3635 13.6113 24.5276ZM15.0469 23.1038C14.4492 22.4592 13.8516 21.7444 13.2715 20.9768C13.834 21.0002 14.4141 21.012 15 21.012C15.6035 21.012 16.1953 21.0002 16.7812 20.9709C16.2422 21.7151 15.6621 22.4241 15.0469 23.1038ZM22.7051 24.8616C22.6523 25.5764 22.3008 26.2444 21.7383 26.6956C20.8066 27.2346 18.8203 26.5315 16.6758 24.6916C16.4297 24.4807 16.1836 24.2522 15.9316 24.0178C16.8281 23.0276 17.6543 21.9788 18.4043 20.8772C19.7461 20.7659 21.082 20.5608 22.4004 20.262C22.459 20.5022 22.5117 20.7424 22.5586 20.9768C22.8457 22.2424 22.8926 23.5608 22.7051 24.8616ZM23.7715 18.5627C23.6074 18.6155 23.4434 18.6682 23.2734 18.7151C22.8633 17.4377 22.3594 16.1897 21.7793 14.9768C22.3418 13.7815 22.8164 12.551 23.2148 11.2913C23.5195 11.3791 23.8125 11.4729 24.0938 11.5666C26.8242 12.5041 28.7402 13.8987 28.7402 14.9651C28.7402 16.1135 26.6953 17.5959 23.7715 18.5627ZM15 17.6838C16.4824 17.6838 17.6836 16.4827 17.6836 15.0002C17.6836 13.5178 16.4824 12.3166 15 12.3166C13.5176 12.3166 12.3164 13.5178 12.3164 15.0002C12.3164 16.4827 13.5176 17.6838 15 17.6838Z" fill="#F8F8F8"/>
</svg>
