<svg width="30" height="30" viewBox="0 0 30 30" fill="none" xmlns="http://www.w3.org/2000/svg">
<path d="M19.5013 6.91268C17.1138 6.95643 14.5251 8.05018 12.4638 10.1127C8.80135 13.7752 9.8601 20.7752 11.1038 22.0189C12.1101 23.0239 19.3476 24.3227 23.0113 20.6589C23.2665 20.402 23.5101 20.1338 23.7413 19.8552C23.7951 19.4902 23.9976 19.0302 24.3526 18.4727C24.1414 18.58 23.9151 18.6542 23.6813 18.6927C23.5013 19.0239 23.2188 19.3802 22.8363 19.7614C22.3938 20.1802 22.0776 20.4539 21.8863 20.5814C21.7271 20.6975 21.537 20.7637 21.3401 20.7714C20.9026 20.7714 20.6976 20.3864 20.7226 19.6164C20.4476 20.0114 20.1913 20.3027 19.9576 20.4914C19.7567 20.6661 19.5012 20.7651 19.2351 20.7714C18.9926 20.7714 18.7851 20.6589 18.6151 20.4302C18.4795 20.2443 18.3962 20.0254 18.3738 19.7964C18.1006 20.0737 17.7961 20.3183 17.4663 20.5252C17.1863 20.6902 16.8788 20.7714 16.5413 20.7714C16.1663 20.7714 15.8626 20.6514 15.6326 20.4114C15.4613 20.2309 15.3493 20.0024 15.3113 19.7564V19.7614C14.9363 20.1064 14.6063 20.3614 14.3238 20.5252C14.0801 20.6779 13.8001 20.7629 13.5126 20.7714C13.3749 20.775 13.2383 20.7457 13.1141 20.6859C12.99 20.6261 12.8819 20.5376 12.7988 20.4277C12.6176 20.1989 12.5263 19.8902 12.5263 19.5039C12.5263 18.9239 12.6526 18.2289 12.9038 17.4164C13.1551 16.6039 13.4601 15.8539 13.8201 15.1702L14.8726 14.7802C14.8967 14.7711 14.9219 14.7656 14.9476 14.7639C15.0263 14.7639 15.0926 14.8227 15.1438 14.9389C15.1938 15.0577 15.2201 15.2152 15.2201 15.4139C15.2201 15.9777 15.0901 16.5239 14.8301 17.0514C14.5713 17.5789 14.1651 18.1427 13.6126 18.7414C13.5901 19.0289 13.5788 19.2264 13.5788 19.3339C13.5788 19.5752 13.6238 19.7652 13.7113 19.9064C13.8001 20.0477 13.9176 20.1177 14.0638 20.1177C14.2354 20.1108 14.4012 20.0544 14.5413 19.9552C14.7063 19.8502 14.9576 19.6302 15.2938 19.3014C15.3288 18.7789 15.5276 18.3039 15.8963 17.8739C16.3013 17.3989 16.7526 17.1627 17.2463 17.1627C17.5038 17.1627 17.7088 17.2302 17.8638 17.3627C17.9394 17.4264 17.9996 17.5064 18.0399 17.5966C18.0801 17.6869 18.0994 17.7851 18.0963 17.8839C18.0963 18.4564 17.4888 18.9202 16.2726 19.2764C16.3826 19.8139 16.6726 20.0839 17.1388 20.0839C17.3227 20.0836 17.5029 20.033 17.6601 19.9377C17.8213 19.8427 18.0613 19.6339 18.3788 19.3164C18.4188 19.0014 18.5263 18.6977 18.7026 18.4064C18.9301 18.0314 19.2226 17.7264 19.5788 17.4939C19.9351 17.2627 20.2501 17.1464 20.5238 17.1464C20.8688 17.1464 21.1113 17.3052 21.2488 17.6227L22.0951 17.1552H22.3276L21.9626 18.3689C21.7751 18.9789 21.6801 19.3977 21.6801 19.6239C21.6801 19.8614 21.7638 19.9802 21.9326 19.9802C22.0401 19.9802 22.1588 19.9239 22.2888 19.8089C22.4188 19.6939 22.6013 19.5189 22.8351 19.2839V19.2852C23.0138 19.0914 23.1776 18.8852 23.3251 18.6677C23.0876 18.5627 22.9688 18.4052 22.9688 18.1989C22.9688 17.9864 23.0413 17.7589 23.1863 17.5177C23.3313 17.2752 23.5301 17.1552 23.7851 17.1552C24.0001 17.1552 24.1076 17.2652 24.1076 17.4864C24.1076 17.6602 24.0451 17.9089 23.9213 18.2314C24.3801 18.1814 24.7801 17.8314 25.1226 17.1789L25.4076 17.1664C26.7313 14.1189 26.4426 10.8227 24.3701 8.75143C23.0963 7.47643 21.3601 6.87643 19.5013 6.91268ZM25.4076 17.1664C24.9825 18.1372 24.4215 19.0425 23.7413 19.8552C23.7322 19.916 23.7272 19.9774 23.7263 20.0389C23.7263 20.2489 23.7851 20.4252 23.9013 20.5677C24.0163 20.7089 24.1588 20.7802 24.3263 20.7802C24.6963 20.7802 25.2188 20.4502 25.8938 19.7964C25.8926 19.8464 25.8901 19.8964 25.8901 19.9477C25.8901 20.1302 25.9051 20.4077 25.9351 20.7802L26.8513 20.5652C26.8513 20.3152 26.8551 20.1189 26.8638 19.9727C26.8763 19.7764 26.9051 19.5602 26.9463 19.3264C26.9713 19.1889 27.0338 19.0564 27.1363 18.9327L27.3688 18.6627C27.5176 18.4892 27.6754 18.3235 27.8413 18.1664C27.9188 18.0977 27.9863 18.0427 28.0438 18.0039C28.0893 17.9719 28.1423 17.9521 28.1976 17.9464C28.2663 17.9464 28.3013 17.9902 28.3013 18.0789C28.3013 18.1664 28.2363 18.3739 28.1063 18.7002C27.8638 19.3077 27.7413 19.7602 27.7413 20.0552C27.7413 20.2739 27.7988 20.4477 27.9113 20.5777C27.9666 20.6415 28.0355 20.692 28.113 20.7256C28.1905 20.7591 28.2745 20.7748 28.3588 20.7714C28.8151 20.7714 29.3626 20.4352 30.0001 19.7614V19.2852C29.5488 19.8177 29.2213 20.0852 29.0201 20.0852C28.8838 20.0852 28.8163 20.0014 28.8163 19.8352C28.8163 19.7102 28.8976 19.4402 29.0601 19.0227C29.2976 18.4152 29.4163 17.9777 29.4163 17.7127C29.4215 17.5669 29.3715 17.4245 29.2763 17.3139C29.2331 17.2629 29.179 17.2222 29.118 17.1948C29.057 17.1673 28.9907 17.1538 28.9238 17.1552C28.7176 17.1552 28.4813 17.2514 28.2151 17.4464C27.9488 17.6414 27.5901 17.9914 27.1363 18.4964C27.2026 18.1689 27.3426 17.7189 27.5551 17.1464L26.5438 17.3414C26.3386 17.7735 26.1718 18.2227 26.0451 18.6839C25.9951 18.8789 25.9576 19.0789 25.9301 19.2839C25.7344 19.4805 25.53 19.6681 25.3176 19.8464C25.2357 19.9101 25.1351 19.9453 25.0313 19.9464C24.9895 19.9481 24.9479 19.9397 24.91 19.9218C24.8722 19.904 24.8392 19.8773 24.8138 19.8439C24.7567 19.7631 24.7285 19.6653 24.7338 19.5664C24.7338 19.4414 24.7576 19.2989 24.8038 19.1377C24.8513 18.9752 24.9538 18.6714 25.1151 18.2239L25.5001 17.1627L25.4076 17.1664ZM3.8951 13.5077C2.81635 13.4877 1.8076 13.8364 1.06885 14.5752C-0.621152 16.2652 -0.268653 19.3589 1.8576 21.4839C3.9826 23.6102 8.0451 22.9964 8.76635 22.2739C9.3501 21.6914 10.1038 17.4902 7.9776 15.3652C6.78135 14.1689 5.28135 13.5339 3.8951 13.5077ZM19.2513 13.9552H19.4588V14.2177H19.2501L19.2513 13.9552ZM19.7851 13.9552H19.9926V15.0364L20.5676 14.4677H20.8113L20.3563 14.9202L20.8913 15.7752H20.6438L20.1976 15.0564L19.9926 15.2639V15.7764H19.7851V13.9552ZM21.0551 13.9552H21.2626V14.2177H21.0551V13.9552ZM21.6563 14.1077H21.8638V14.4677H22.0788V14.6364H21.8638V15.5327C21.8638 15.5789 21.8713 15.6102 21.8888 15.6264C21.9038 15.6427 21.9351 15.6514 21.9813 15.6514C22.0143 15.6529 22.0473 15.6487 22.0788 15.6389V15.8152C22.0228 15.8258 21.9659 15.8317 21.9088 15.8327C21.842 15.8372 21.7757 15.8181 21.7213 15.7789C21.6994 15.7601 21.6821 15.7364 21.6708 15.7097C21.6595 15.683 21.6546 15.6541 21.6563 15.6252V14.6377H21.4801V14.4677H21.6563V14.1077ZM17.2038 14.4302C17.3051 14.4302 17.3913 14.4452 17.4626 14.4777C17.5338 14.5077 17.5876 14.5539 17.6251 14.6152C17.6626 14.6764 17.6813 14.7477 17.6813 14.8314H17.4613C17.4538 14.6927 17.3676 14.6227 17.2013 14.6227C17.1294 14.6186 17.0579 14.6365 16.9963 14.6739C16.9723 14.6898 16.9528 14.7116 16.9397 14.7372C16.9265 14.7628 16.9202 14.7914 16.9213 14.8202C16.9213 14.8639 16.9401 14.9014 16.9776 14.9302C17.0151 14.9602 17.0776 14.9852 17.1651 15.0052L17.3651 15.0539C17.4685 15.0719 17.5652 15.1172 17.6451 15.1852C17.7038 15.2427 17.7326 15.3202 17.7326 15.4177C17.7342 15.4956 17.7115 15.572 17.6676 15.6364C17.6201 15.7026 17.554 15.7531 17.4776 15.7814C17.3877 15.817 17.2917 15.8344 17.1951 15.8327C17.0251 15.8327 16.8951 15.7952 16.8088 15.7227C16.7226 15.6489 16.6776 15.5364 16.6726 15.3864H16.8926C16.8976 15.4327 16.9051 15.4677 16.9138 15.4914C16.9235 15.5165 16.9379 15.5394 16.9563 15.5589C17.0113 15.6127 17.0963 15.6402 17.2113 15.6402C17.2891 15.6441 17.3662 15.6245 17.4326 15.5839C17.4582 15.5684 17.4793 15.5466 17.494 15.5205C17.5087 15.4945 17.5164 15.4651 17.5163 15.4352C17.5171 15.4141 17.5132 15.3931 17.505 15.3737C17.4968 15.3543 17.4845 15.3368 17.4688 15.3227C17.4234 15.2877 17.3703 15.2641 17.3138 15.2539L17.1188 15.2064C17.0513 15.19 16.9849 15.1692 16.9201 15.1439C16.8754 15.1253 16.8341 15.0995 16.7976 15.0677C16.7657 15.0392 16.7409 15.0037 16.7251 14.9639C16.7107 14.9204 16.704 14.8747 16.7051 14.8289C16.7051 14.7089 16.7501 14.6114 16.8413 14.5389C16.946 14.4619 17.0741 14.4235 17.2038 14.4302ZM18.4976 14.4302C18.5848 14.4287 18.6711 14.4471 18.7501 14.4839C18.8053 14.5095 18.8546 14.5462 18.8948 14.5919C18.9351 14.6375 18.9654 14.691 18.9838 14.7489C18.9992 14.8002 19.0089 14.853 19.0126 14.9064H18.8026C18.7974 14.8267 18.7627 14.7518 18.7051 14.6964C18.6466 14.645 18.5704 14.6181 18.4926 14.6214C18.4228 14.6199 18.3546 14.6419 18.2988 14.6839C18.2405 14.7305 18.1971 14.793 18.1738 14.8639C18.1437 14.9541 18.1293 15.0488 18.1313 15.1439C18.129 15.2351 18.1438 15.3258 18.1751 15.4114C18.2001 15.4786 18.2439 15.5372 18.3013 15.5802C18.3586 15.6208 18.4274 15.6418 18.4976 15.6402C18.6751 15.6402 18.7813 15.5352 18.8176 15.3252H19.0263C19.0201 15.4218 18.9924 15.5157 18.9451 15.6002C18.9024 15.6743 18.839 15.7343 18.7626 15.7727C18.6788 15.8142 18.5861 15.8347 18.4926 15.8327C18.3843 15.8355 18.2775 15.8069 18.1851 15.7502C18.0962 15.6913 18.0263 15.608 17.9838 15.5102C17.9342 15.3946 17.9099 15.2697 17.9126 15.1439C17.9126 15.0377 17.9251 14.9402 17.9526 14.8527C17.9767 14.7697 18.0171 14.6924 18.0713 14.6252C18.1213 14.5622 18.1856 14.512 18.2588 14.4789C18.3339 14.4451 18.4153 14.4293 18.4976 14.4302ZM19.2513 14.4677H19.4588V15.7752H19.2501L19.2513 14.4677ZM21.0551 14.4677H21.2626V15.7752H21.0551V14.4677ZM14.7426 15.2402C14.6426 15.2402 14.4926 15.4952 14.2976 16.0039C14.1038 16.5127 13.9126 17.2252 13.7238 18.1414C14.0751 17.7514 14.3601 17.3139 14.5776 16.8289C14.7963 16.3452 14.9051 15.9289 14.9051 15.5802C14.9086 15.4958 14.8932 15.4117 14.8601 15.3339C14.8288 15.2714 14.7901 15.2402 14.7438 15.2402H14.7426ZM20.5701 17.4864C20.2938 17.4864 20.0313 17.7214 19.7838 18.1902C19.5376 18.6602 19.4138 19.0927 19.4138 19.4877C19.4138 19.6377 19.4501 19.7577 19.5238 19.8502C19.556 19.8938 19.598 19.9291 19.6465 19.9532C19.6949 19.9773 19.7485 19.9896 19.8026 19.9889C20.0788 19.9889 20.3401 19.7539 20.5838 19.2827C20.8288 18.8114 20.9513 18.3764 20.9513 17.9789C20.9588 17.8498 20.9222 17.722 20.8476 17.6164C20.8149 17.5743 20.7728 17.5406 20.7245 17.518C20.6763 17.4954 20.6233 17.4846 20.5701 17.4864ZM17.0101 17.4952C16.8276 17.4952 16.6538 17.6327 16.4888 17.9114C16.3226 18.1889 16.2388 18.5489 16.2388 18.9939C16.9463 18.7952 17.3001 18.4289 17.3001 17.8927C17.3001 17.6277 17.2038 17.4952 17.0101 17.4952Z" fill="#F8F8F8"/>
</svg>
